<svg width="192" height="192" viewBox="0 0 192 192" xmlns="http://www.w3.org/2000/svg">
  <defs>
    <linearGradient id="bg" x1="0%" y1="0%" x2="0%" y2="100%">
      <stop offset="0%" style="stop-color:#4169E1;stop-opacity:1" />
      <stop offset="100%" style="stop-color:#2196F3;stop-opacity:1" />
    </linearGradient>
  </defs>
  
  <!-- Background -->
  <rect width="192" height="192" rx="24" fill="url(#bg)"/>
  
  <!-- Paper background -->
  <rect x="24" y="32" width="144" height="128" rx="12" fill="#ffffff" fill-opacity="0.95"/>
  
  <!-- Header line -->
  <rect x="40" y="56" width="112" height="2" fill="#e5e7eb"/>
  
  <!-- Task 1 (completed) -->
  <rect x="40" y="76" width="12" height="12" rx="3" fill="#22c55e"/>
  <path d="M43 82 L46 85 L49 79" stroke="white" stroke-width="2" fill="none" stroke-linecap="round"/>
  <rect x="60" y="80" width="80" height="2" fill="#9ca3af"/>
  <rect x="60" y="82" width="80" height="1" fill="#9ca3af"/>
  
  <!-- Task 2 (pending) -->
  <rect x="40" y="96" width="12" height="12" rx="3" fill="none" stroke="#9ca3af" stroke-width="1.5"/>
  <rect x="60" y="100" width="96" height="2" fill="#374151"/>
  
  <!-- Task 3 (pending) -->
  <rect x="40" y="116" width="12" height="12" rx="3" fill="none" stroke="#9ca3af" stroke-width="1.5"/>
  <rect x="60" y="120" width="72" height="2" fill="#374151"/>
  
  <!-- Plus icon (add task) -->
  <circle cx="152" cy="152" r="16" fill="#4f46e5"/>
  <rect x="148" y="144" width="8" height="16" fill="white" rx="1"/>
  <rect x="144" y="148" width="16" height="8" fill="white" rx="1"/>
</svg>
